<?xml version="1.0" encoding="utf-8"?>
<!-- Generator: Adobe Illustrator 22.0.0, SVG Export Plug-In . SVG Version: 6.00 Build 0)  -->
<svg version="1.1" id="Capa_1" xmlns="http://www.w3.org/2000/svg" xmlns:xlink="http://www.w3.org/1999/xlink" x="0px" y="0px"
	 viewBox="0 0 841.3 148.3" enable-background="new 0 0 841.3 148.3" xml:space="preserve">
<path fill="#2D3035" d="M212.9,120.7h1.4v19.9h-1.4V120.7z M242.6,120.7v19.9h-1.2l-13.6-17.3v17.3h-1.4v-19.9h1.2l13.5,17.3v-17.3
	H242.6z M270.3,120.7l-8.9,19.9H260l-8.9-19.9h1.6l8,18l8-18H270.3z M292.3,139.3v1.3h-13.7v-19.9h13.3v1.3h-11.8v7.8h10.6v1.3
	h-10.6v8.2H292.3z M316.5,140.6l-4.7-6.6c-0.6,0.1-1.3,0.1-1.9,0.1h-5.7v6.5h-1.4v-19.9h7.1c5,0,8,2.5,8,6.7c0,3.2-1.7,5.3-4.7,6.2
	l5,7H316.5z M309.9,132.8c4.3,0,6.5-2,6.5-5.4c0-3.4-2.3-5.4-6.5-5.4h-5.7v10.8H309.9z M326.3,138l0.7-1.1c1.4,1.4,3.9,2.5,6.6,2.5
	c4,0,5.7-1.7,5.7-3.9c0-6-12.4-2.4-12.4-9.7c0-2.8,2.2-5.3,7-5.3c2.2,0,4.5,0.7,6,1.8l-0.5,1.2c-1.6-1.1-3.7-1.7-5.5-1.7
	c-3.9,0-5.6,1.8-5.6,4c0,6,12.4,2.4,12.4,9.7c0,2.8-2.2,5.3-7.2,5.3C330.6,140.7,327.7,139.6,326.3,138z M350.7,120.7h1.4v19.9h-1.4
	V120.7z M362.3,130.7c0-5.8,4.4-10.1,10.3-10.1c5.9,0,10.3,4.3,10.3,10.1s-4.4,10.1-10.3,10.1C366.7,140.7,362.3,136.4,362.3,130.7z
	 M381.5,130.7c0-5-3.8-8.8-8.9-8.8c-5.1,0-8.9,3.7-8.9,8.8c0,5,3.8,8.8,8.9,8.8C377.7,139.4,381.5,135.7,381.5,130.7z M409.3,120.7
	v19.9h-1.2l-13.6-17.3v17.3h-1.4v-19.9h1.2l13.5,17.3v-17.3H409.3z M435.1,139.3v1.3h-13.7v-19.9h13.3v1.3h-11.8v7.8h10.6v1.3h-10.6
	v8.2H435.1z M443.5,138l0.7-1.1c1.4,1.4,3.9,2.5,6.6,2.5c4,0,5.7-1.7,5.7-3.9c0-6-12.4-2.4-12.4-9.7c0-2.8,2.2-5.3,7-5.3
	c2.2,0,4.5,0.7,6,1.8l-0.5,1.2c-1.6-1.1-3.7-1.7-5.5-1.7c-3.9,0-5.6,1.8-5.6,4c0,6,12.4,2.4,12.4,9.7c0,2.8-2.2,5.3-7.2,5.3
	C447.8,140.7,444.9,139.6,443.5,138z M480.3,120.7h1.4v19.9h-1.4V120.7z M510,120.7v19.9h-1.2l-13.6-17.3v17.3h-1.4v-19.9h1.2
	l13.5,17.3v-17.3H510z M540.9,140.6l0-17l-8.3,14.4h-0.7l-8.3-14.3v17H522v-19.9h1.2l8.9,15.4l8.9-15.4h1.2l0,19.9H540.9z
	 M552.4,130.7c0-5.8,4.4-10.1,10.3-10.1c5.9,0,10.3,4.3,10.3,10.1s-4.4,10.1-10.3,10.1C556.8,140.7,552.4,136.4,552.4,130.7z
	 M571.6,130.7c0-5-3.8-8.8-8.9-8.8c-5.1,0-8.9,3.7-8.9,8.8c0,5,3.8,8.8,8.9,8.8C567.8,139.4,571.6,135.7,571.6,130.7z M599.4,135.3
	c0,3.4-2.4,5.3-7.3,5.3h-8.9v-19.9h8.3c4.3,0,6.8,1.8,6.8,5.1c0,2.4-1.3,3.9-3.3,4.5C597.9,130.9,599.4,132.6,599.4,135.3z
	 M584.7,122v7.9h6.8c3.4,0,5.4-1.3,5.4-4c0-2.6-2-4-5.4-4H584.7z M598,135.2c0-2.8-2.1-4.1-5.9-4.1h-7.4v8.2h7.4
	C595.9,139.4,598,138.1,598,135.2z M609.7,120.7h1.4v19.9h-1.4V120.7z M623.2,120.7h1.4v18.6h11.5v1.3h-12.9V120.7z M644.9,120.7
	h1.4v19.9h-1.4V120.7z M670.7,135h-11.5l-2.5,5.6h-1.6l9.1-19.9h1.4l9.1,19.9h-1.6L670.7,135z M670.2,133.8l-5.2-11.5l-5.2,11.5
	H670.2z M697.4,140.6l-4.7-6.6c-0.6,0.1-1.3,0.1-1.9,0.1H685v6.5h-1.4v-19.9h7.1c5,0,8,2.5,8,6.7c0,3.2-1.7,5.3-4.7,6.2l5,7H697.4z
	 M690.7,132.8c4.3,0,6.5-2,6.5-5.4c0-3.4-2.3-5.4-6.5-5.4H685v10.8H690.7z M709.2,120.7h1.4v19.9h-1.4V120.7z M734.9,135h-11.5
	l-2.5,5.6h-1.6l9.1-19.9h1.4l9.1,19.9h-1.6L734.9,135z M734.4,133.8l-5.2-11.5l-5.2,11.5H734.4z M745.8,138l0.7-1.1
	c1.4,1.4,3.9,2.5,6.6,2.5c4,0,5.7-1.7,5.7-3.9c0-6-12.4-2.4-12.4-9.7c0-2.8,2.2-5.3,7-5.3c2.2,0,4.5,0.7,6,1.8l-0.5,1.2
	c-1.6-1.1-3.7-1.7-5.5-1.7c-3.9,0-5.6,1.8-5.6,4c0,6,12.4,2.4,12.4,9.7c0,2.8-2.2,5.3-7.2,5.3C750.1,140.7,747.2,139.6,745.8,138z"
	/>
<path fill="#2D3035" d="M169.9,48.5h38.3v10.1H181v10.7h24v10.1h-24v19.5h-11.1V48.5z M217.1,48.5h38v9.9h-27v10.2h23.7v9.9h-23.7
	V89h27.3v9.9h-38.3V48.5z M265.3,48.5h19.6c15.8,0,26.8,10.9,26.8,25v0.1c0,14.2-10.9,25.2-26.8,25.2h-19.6V48.5z M284.9,88.9
	c9.1,0,15.2-6.1,15.2-15v-0.1c0-8.9-6.1-15.2-15.2-15.2h-8.6V89L284.9,88.9L284.9,88.9z M321.5,48.5h38v9.9h-27v10.2h23.7v9.9h-23.7
	V89h27.3v9.9h-38.3V48.5z M369.7,48.5h23c6.4,0,11.4,1.8,14.7,5.1c2.8,2.8,4.3,6.8,4.3,11.5v0.1c0,8.1-4.4,13.2-10.8,15.6l12.3,18
	h-12.9l-10.8-16.1h-0.1h-8.6v16.1h-11.1V48.5z M392,73c5.4,0,8.5-2.9,8.5-7.1v-0.1c0-4.7-3.3-7.2-8.7-7.2h-11V73H392z M422.2,48.5
	h11.1v50.3h-11.1V48.5z M443.7,73.9L443.7,73.9c0-14.4,10.8-26.1,26.3-26.1c9.5,0,15.2,3.2,19.9,7.8l-7,8.1
	C479,60.2,475.1,58,470,58c-8.5,0-14.6,7-14.6,15.7v0.1c0,8.6,6,15.8,14.6,15.8c5.8,0,9.3-2.3,13.2-5.9l7,7.1
	c-5.2,5.5-10.9,9-20.6,9C454.7,99.7,443.7,88.3,443.7,73.9z M495.3,73.9L495.3,73.9c0-14.4,11.3-26.1,26.8-26.1s26.7,11.6,26.7,25.9
	v0.1c0,14.3-11.3,26-26.8,26C506.5,99.7,495.3,88.2,495.3,73.9z M537.2,73.9L537.2,73.9c0-8.7-6.3-15.9-15.2-15.9s-15.1,7-15.1,15.7
	v0.1c0,8.6,6.3,15.8,15.2,15.8S537.2,82.5,537.2,73.9z M580.2,48.5h23c6.4,0,11.4,1.8,14.7,5.1c2.8,2.8,4.3,6.8,4.3,11.5v0.1
	c0,8.1-4.4,13.2-10.8,15.6l12.3,18h-12.9l-10.8-16h-0.1h-8.6v16.1h-11.1L580.2,48.5L580.2,48.5z M602.5,73c5.4,0,8.5-2.9,8.5-7.1
	v-0.1c0-4.7-3.3-7.2-8.7-7.2h-11V73H602.5z M632.8,48.5h11.1v50.3h-11.1V48.5z M654.9,90.5l27.7-32.2h-26.8v-9.7h41.1V57l-27.7,32.2
	h27.7v9.7H655L654.9,90.5L654.9,90.5z M705.1,90.5l27.7-32.2H706v-9.7h41V57l-27.7,32.2H747v9.7h-41.9V90.5z M752.8,73.9L752.8,73.9
	c0-14.4,11.3-26.1,26.8-26.1s26.7,11.6,26.7,25.9v0.1c0,14.3-11.3,26-26.8,26C763.9,99.7,752.8,88.2,752.8,73.9z M794.7,73.9
	L794.7,73.9c0-8.7-6.3-15.9-15.2-15.9s-15.1,7-15.1,15.7v0.1c0,8.6,6.3,15.8,15.2,15.8C788.5,89.5,794.7,82.5,794.7,73.9z"/>
<linearGradient id="iso_1_" gradientUnits="userSpaceOnUse" x1="25.3" y1="76.45" x2="137.2" y2="76.45" gradientTransform="matrix(1 0 0 -1 0 150)">
	<stop  offset="1.939290e-07" style="stop-color:#DB1D59"/>
	<stop  offset="1" style="stop-color:#ED5031"/>
</linearGradient>
<polygon id="iso_22_" fill="url(#iso_1_)" points="105.9,55.9 88.1,65.7 93.8,71 105.9,63.8 129.4,77.6 129.4,133.6 109.2,133.6 
	109.2,88.8 80,71.7 49.9,89.4 50,115.6 80,115.6 80,87.8 72.2,93.1 72.2,109.9 57.7,109.9 57.7,92.6 80,80.4 101.5,92.7 
	101.5,133.6 59,133.6 33.1,133.6 33.1,46.2 72.2,19.9 72.2,67.4 80,62.1 80,5.8 25.3,43 25.4,141.3 137.2,141.3 137.2,74.3 "/>
</svg>
